<?xml version="1.0" standalone="no"?>
<!DOCTYPE svg PUBLIC "-//W3C//DTD SVG 20010904//EN"
 "http://www.w3.org/TR/2001/REC-SVG-20010904/DTD/svg10.dtd">
<svg version="1.0" xmlns="http://www.w3.org/2000/svg"
 width="68.000000pt" height="70.000000pt" viewBox="0 0 68.000000 70.000000"
 preserveAspectRatio="xMidYMid meet">

<g transform="translate(0.000000,70.000000) scale(0.100000,-0.100000)"
fill="#000000" stroke="none">
<path d="M220 688 c0 -7 -15 -28 -32 -48 l-33 -35 31 28 c17 15 35 27 40 25 5
-2 22 7 38 20 l29 22 -37 0 c-21 0 -36 -5 -36 -12z"/>
<path d="M354 691 c3 -5 21 -9 38 -8 45 1 106 -30 123 -63 8 -15 21 -30 30
-33 20 -8 19 -30 -5 -76 -10 -21 -16 -41 -13 -44 6 -7 -20 -3 -52 8 l-20 7 20
-17 c11 -9 30 -18 43 -22 12 -3 22 -9 22 -15 0 -10 -31 -3 -70 17 -59 31 -110
112 -110 177 0 20 -4 28 -9 23 -6 -6 -5 -31 1 -63 6 -29 9 -55 6 -57 -2 -2
-21 -2 -41 2 -36 5 -37 7 -21 24 9 10 22 16 28 12 6 -3 8 -3 4 2 -4 4 -3 16 3
27 20 37 2 29 -24 -11 -16 -24 -45 -48 -78 -65 -55 -27 -109 -34 -109 -14 0 6
-3 8 -7 4 -5 -4 1 -15 12 -23 15 -11 16 -17 7 -20 -7 -3 -22 -14 -32 -26 l-20
-21 -23 22 c-13 12 -30 22 -38 22 -8 0 -3 -6 10 -13 13 -6 31 -22 39 -35 14
-22 14 -23 -8 -29 -22 -6 -22 -6 -2 -17 14 -7 18 -16 13 -24 -6 -10 -16 -6
-40 18 -29 30 -31 30 -31 9 0 -12 3 -20 6 -17 3 3 16 -5 30 -18 20 -21 27 -23
46 -13 17 8 14 3 -9 -19 -33 -31 -41 -63 -24 -91 9 -14 -21 -71 -41 -79 -4 -2
-8 -10 -8 -17 0 -11 5 -11 28 1 15 7 30 14 35 14 10 0 9 -28 -4 -73 -9 -33
-12 -36 -30 -26 -28 14 -37 3 -13 -16 41 -31 74 -14 74 37 0 11 8 33 17 49 15
25 22 29 47 23 26 -6 66 -42 89 -81 5 -8 4 -20 -3 -29 -11 -12 -7 -14 22 -14
26 0 35 4 35 18 0 9 -5 20 -10 24 -15 9 11 38 34 38 23 0 62 -37 54 -50 -4 -6
-17 -10 -30 -10 -13 0 -27 -4 -30 -10 -4 -6 12 -10 42 -10 37 0 51 5 60 20 7
10 22 24 33 30 18 10 19 8 14 -22 -4 -25 -3 -29 5 -18 7 10 11 11 11 3 0 -23
58 -15 84 12 13 13 45 29 70 36 48 12 64 39 24 39 -15 0 -29 11 -40 31 -19 33
-38 33 -88 0 -14 -9 -37 -22 -52 -29 -25 -10 -28 -9 -48 23 -13 21 -19 42 -15
55 4 13 -2 27 -19 45 -14 14 -21 25 -16 25 5 0 12 -5 16 -11 4 -6 19 -9 37 -5
16 3 36 1 43 -5 8 -6 23 -7 36 -3 41 14 53 16 78 17 15 0 33 10 43 24 10 12
13 23 7 23 -5 0 -10 10 -10 22 0 19 -2 20 -17 6 -10 -8 -31 -14 -48 -13 -16 1
-38 3 -49 4 -16 1 -16 3 5 21 20 16 21 21 10 29 -8 5 -21 7 -28 4 -11 -4 -14
1 -11 18 3 22 7 24 51 21 56 -4 85 12 65 36 -9 11 -10 16 -2 19 56 19 56 63
-1 63 l-36 0 7 38 c4 20 11 40 17 43 5 4 7 14 4 23 -5 11 -1 16 13 16 11 0 19
6 17 13 -1 6 4 11 12 9 9 -2 11 3 7 13 -3 9 -6 19 -6 21 0 2 -66 4 -146 4 -83
0 -143 -4 -140 -9z m-80 -193 c10 16 35 15 71 -4 20 -10 31 -12 33 -4 5 15 32
-8 32 -28 0 -8 3 -13 6 -9 3 3 11 1 18 -4 6 -5 20 -17 31 -25 11 -9 14 -12 6
-8 -9 4 -12 2 -9 -7 3 -8 -1 -27 -10 -44 -8 -16 -18 -37 -22 -45 -9 -20 -45
-36 -95 -44 -25 -3 -33 -2 -20 3 19 8 19 8 -2 15 -19 6 -63 54 -63 69 0 3 9 7
20 10 11 3 20 11 20 19 0 11 -2 10 -9 -1 -13 -20 -60 -5 -71 22 -5 14 -9 16
-9 6 -1 -8 4 -20 11 -27 9 -9 7 -12 -8 -12 -33 0 -60 79 -34 95 6 4 17 2 23
-4 10 -7 19 -2 37 19 21 25 26 27 31 13 4 -12 8 -13 13 -5z m-124 -67 c19 -37
12 -51 -25 -51 -39 0 -44 13 -19 48 19 27 30 28 44 3z m40 -70 c0 -5 -14 -12
-31 -16 -22 -5 -36 -3 -47 9 -15 15 -12 16 31 16 26 0 47 -4 47 -9z m30 -36
c0 -8 -2 -15 -4 -15 -2 0 -6 7 -10 15 -3 8 -1 15 4 15 6 0 10 -7 10 -15z m-34
-3 c16 -10 27 -88 16 -108 -8 -14 -12 -13 -28 15 -10 17 -33 37 -51 43 -18 7
-33 15 -33 18 0 7 32 24 60 33 22 8 24 7 36 -1z m60 -17 c-3 -8 -1 -15 4 -15
6 0 10 -14 10 -32 0 -31 0 -31 -20 -13 -13 11 -18 25 -14 34 3 9 7 22 7 29 0
6 5 12 10 12 5 0 7 -7 3 -15z m31 -47 c-3 -8 -6 -5 -6 6 -1 11 2 17 5 13 3 -3
4 -12 1 -19z m343 12 c-20 -13 -33 -13 -25 0 3 6 14 10 23 10 15 0 15 -2 2
-10z m-288 -88 c24 -11 26 -17 21 -45 -7 -40 -9 -42 -26 -29 -10 8 -16 6 -26
-11 l-14 -21 -10 24 c-6 14 -11 28 -11 32 -1 4 -8 13 -16 20 -12 11 -12 10 0
-7 14 -18 14 -19 -2 -6 -10 7 -18 24 -18 38 0 21 4 23 38 21 20 -1 49 -8 64
-16z"/>
<path d="M295 484 c-17 -13 -18 -16 -5 -24 10 -6 20 -5 30 5 21 22 0 37 -25
19z"/>
<path d="M180 450 c0 -5 5 -10 11 -10 5 0 7 5 4 10 -3 6 -8 10 -11 10 -2 0 -4
-4 -4 -10z"/>
<path d="M332 348 c-14 -14 -4 -38 14 -31 15 6 19 29 6 37 -5 3 -14 0 -20 -6z"/>
<path d="M660 679 c0 -11 5 -17 10 -14 6 3 10 13 10 21 0 8 -4 14 -10 14 -5 0
-10 -9 -10 -21z"/>
<path d="M191 559 c-14 -40 -14 -39 2 -39 8 0 13 13 13 35 0 19 -1 35 -2 35
-1 0 -7 -14 -13 -31z"/>
<path d="M142 555 c0 -16 2 -22 5 -12 2 9 2 23 0 30 -3 6 -5 -1 -5 -18z"/>
<path d="M138 513 c6 -2 18 -2 25 0 6 3 1 5 -13 5 -14 0 -19 -2 -12 -5z"/>
</g>
</svg>
